<svg width="273" height="101" viewBox="0 0 273 101" fill="none" xmlns="http://www.w3.org/2000/svg">
<g clip-path="url(#clip0_8_3)">
<path d="M50.2299 93.2709C53.0772 93.2709 55.61 92.5812 57.8438 91.2174C60.0776 89.8536 61.8238 87.9882 63.1138 85.5741C64.4037 83.1914 65.033 80.5265 65.033 77.5638C65.033 74.6011 64.4037 71.8892 63.1138 69.5535C61.8238 67.2178 60.0619 65.368 57.8438 64.0042C55.61 62.6718 53.0772 61.9821 50.2299 61.9821C47.3825 61.9821 44.9284 62.6718 42.6474 64.0199C40.3821 65.3837 38.6045 67.2334 37.2988 69.5691C35.9931 71.9048 35.3481 74.5697 35.3481 77.5795C35.3481 80.5892 35.9931 83.2071 37.2988 85.5898C38.6045 87.9725 40.3978 89.8536 42.6474 91.2331C44.9127 92.5812 47.4297 93.2709 50.2299 93.2709ZM50.2299 100.78C45.888 100.78 41.971 99.7607 38.4629 97.7228C34.9548 95.685 32.2176 92.9261 30.1883 89.4147C28.1432 85.919 27.1364 81.953 27.1364 77.5638C27.1364 73.1746 28.0803 69.2399 29.9366 65.7599C31.8086 62.2956 34.357 59.5366 37.5977 57.4988C40.8226 55.4609 44.488 54.4577 48.5466 54.4577C51.8345 54.4577 54.8706 55.1474 57.6707 56.4955C60.4709 57.8593 62.7991 59.7091 64.7026 62.0448V39.5187C64.7026 38.2332 65.1116 37.2143 65.9296 36.4305C66.7319 35.6467 67.7545 35.2705 68.9972 35.2705C70.24 35.2705 71.3097 35.6467 72.0963 36.4305C72.8829 37.2143 73.2604 38.2332 73.2604 39.5187V77.5481C73.2604 81.9373 72.2379 85.8876 70.1928 89.399C68.1478 92.8947 65.4105 95.6693 61.9654 97.7072C58.4888 99.745 54.5874 100.764 50.2456 100.764L50.2299 100.78Z" fill="#EB5B28"/>
<path d="M89.2434 71.9048C89.2434 68.5659 90.0614 65.5875 91.6974 62.9226C93.3335 60.2891 95.5673 58.1885 98.3517 56.6366C101.136 55.0847 104.204 54.3009 107.555 54.3009C110.905 54.3009 113.391 54.8339 115.027 55.9312C116.663 57.0128 117.308 58.2982 116.915 59.8031C116.742 60.5869 116.427 61.1826 115.939 61.6058C115.452 62.0291 114.917 62.2956 114.319 62.4053C113.705 62.515 113.029 62.4837 112.305 62.3269C108.75 61.6058 105.525 61.5431 102.694 62.1545C99.8462 62.7658 97.6124 63.9102 95.9763 65.5718C94.3403 67.2334 93.5065 69.3653 93.5065 71.9048H89.2434ZM89.322 100.419C87.9849 100.419 86.9466 100.074 86.223 99.3688C85.4993 98.6634 85.1375 97.6288 85.1375 96.2336V58.9723C85.1375 57.6399 85.4993 56.6053 86.223 55.8842C86.9466 55.1631 87.9849 54.8025 89.322 54.8025C90.6592 54.8025 91.7604 55.1474 92.4683 55.8528C93.1762 56.5582 93.5223 57.5928 93.5223 58.988V96.265C93.5223 97.5974 93.1762 98.632 92.4683 99.3531C91.7446 100.059 90.7064 100.419 89.322 100.419Z" fill="#EB5B28"/>
<path d="M130.884 100.435C129.657 100.435 128.65 100.027 127.832 99.212C127.03 98.4126 126.605 97.3937 126.605 96.1709V59.0507C126.605 57.7653 127.014 56.7463 127.832 55.9626C128.634 55.1788 129.657 54.8025 130.884 54.8025C132.174 54.8025 133.196 55.1788 133.983 55.9626C134.77 56.7463 135.147 57.7653 135.147 59.0507V96.1709C135.147 97.3937 134.77 98.4126 133.983 99.212C133.196 100.027 132.158 100.435 130.884 100.435Z" fill="#EB5B28"/>
<path d="M170.888 93.2709C173.736 93.2709 176.269 92.5812 178.502 91.2174C180.736 89.8536 182.498 87.9882 183.804 85.5741C185.11 83.1914 185.755 80.5265 185.755 77.5638C185.755 74.6011 185.11 71.8892 183.804 69.5535C182.498 67.2178 180.721 65.368 178.502 64.0042C176.284 62.6404 173.736 61.9664 170.888 61.9664C168.041 61.9664 165.587 62.6561 163.306 64.0042C161.041 65.368 159.279 67.2178 158.005 69.5535C156.715 71.8892 156.085 74.554 156.085 77.5638C156.085 80.5735 156.715 83.1914 158.005 85.5741C159.295 87.9568 161.072 89.8379 163.306 91.2174C165.571 92.5812 168.088 93.2709 170.888 93.2709ZM170.888 100.78C166.547 100.78 162.645 99.7607 159.184 97.7229C155.724 95.685 153.002 92.9261 150.988 89.4147C148.975 85.919 147.937 81.953 147.889 77.5638V39.5343C147.889 38.2489 148.298 37.23 149.101 36.4462C149.903 35.6624 150.926 35.2862 152.168 35.2862C153.411 35.2862 154.481 35.6624 155.267 36.4462C156.054 37.23 156.431 38.2489 156.431 39.5343V62.0604C158.382 59.7247 160.742 57.875 163.511 56.5112C166.279 55.1474 169.3 54.4734 172.572 54.4734C176.63 54.4734 180.296 55.4923 183.521 57.5145C186.746 59.5523 189.31 62.2956 191.182 65.7756C193.054 69.2399 193.982 73.1902 193.982 77.5795C193.982 81.9687 192.959 85.919 190.914 89.4304C188.869 92.9261 186.132 95.7007 182.687 97.7385C179.226 99.7764 175.293 100.795 170.888 100.795V100.78Z" fill="#EB5B28"/>
<path d="M217.547 100.435C215.093 100.435 212.907 99.7607 211.019 98.4283C209.131 97.0958 207.637 95.2774 206.583 92.9574C205.529 90.6531 204.994 88.0039 204.994 84.9941V39.4716C204.994 38.2489 205.371 37.2457 206.158 36.4619C206.945 35.6781 207.951 35.3019 209.163 35.3019C210.374 35.3019 211.381 35.6781 212.167 36.4619C212.954 37.2457 213.331 38.2489 213.331 39.4716V85.0098C213.331 87.0633 213.709 88.7563 214.496 90.1044C215.282 91.4369 216.289 92.1109 217.5 92.1109H219.592C220.709 92.1109 221.622 92.4871 222.314 93.2709C223.022 94.0547 223.368 95.058 223.368 96.2807C223.368 97.5034 222.833 98.5066 221.779 99.2904C220.725 100.074 219.356 100.45 217.673 100.45H217.484L217.547 100.435Z" fill="#EB5B28"/>
<path d="M268.737 100.513C267.51 100.513 266.503 100.106 265.669 99.3061C264.867 98.5066 264.442 97.4877 264.442 96.2493V83.4892L266.031 74.6481L272.969 77.6578V96.265C272.969 97.4877 272.56 98.5066 271.742 99.3218C270.924 100.137 269.948 100.529 268.721 100.529L268.737 100.513ZM250.001 93.2553C252.848 93.2553 255.381 92.5655 257.615 91.2017C259.849 89.8379 261.595 87.9882 262.885 85.6055C264.175 83.2384 264.804 80.5892 264.804 77.6265C264.804 74.6638 264.175 71.9362 262.885 69.5691C261.595 67.2021 259.833 65.3524 257.615 63.9729C255.397 62.5934 252.848 61.935 250.001 61.935C247.154 61.935 244.7 62.6248 242.419 63.9729C240.153 65.3367 238.376 67.1864 237.07 69.5691C235.764 71.9362 235.119 74.6167 235.119 77.6265C235.119 80.6362 235.764 83.2384 237.07 85.6055C238.376 87.9725 240.169 89.8223 242.419 91.2017C244.7 92.5655 247.217 93.2553 250.001 93.2553ZM248.333 100.764C244.275 100.764 240.609 99.745 237.384 97.7072C234.16 95.6693 231.595 92.9261 229.723 89.446C227.851 85.966 226.923 82.0314 226.923 77.6422C226.923 73.2529 227.946 69.3027 229.975 65.7913C232.004 62.2799 234.773 59.521 238.25 57.4831C241.726 55.4453 245.643 54.442 250.017 54.442C254.39 54.442 258.26 55.4609 261.721 57.4831C265.182 59.521 267.919 62.2799 269.948 65.7913C271.978 69.287 273.016 73.2529 273.016 77.6422H269.759C269.759 82.0314 268.816 85.966 266.959 89.446C265.087 92.9104 262.539 95.6693 259.298 97.7072C256.073 99.745 252.424 100.764 248.349 100.764H248.333Z" fill="#EB5B28"/>
<path d="M24.3686 99.7453C22.3707 99.2907 20.4358 98.4756 18.5637 97.4567C16.7232 96.3907 14.9456 95.0896 13.2781 93.6318C10.0374 90.6063 7.19006 86.9069 5.0978 82.6901C3.02128 78.4733 1.40096 73.8646 0.630131 69.0208C-0.109238 64.1926 -0.235087 59.0823 0.425625 54.1915C1.79424 44.4412 5.45962 35.3649 10.6037 27.5113C13.1994 23.5924 16.1569 19.9085 19.5391 16.695C22.8898 13.4658 26.744 10.5344 30.7712 8.35549C34.704 6.17656 38.7784 4.45222 42.9314 3.18249C47.0688 1.8814 51.2847 1.00355 55.5007 0.517602C59.7167 -0.0310504 63.9484 -0.0937536 68.1329 0.0943558C72.3489 0.329493 76.4075 0.9722 80.6235 1.83437C84.8395 2.72789 88.6779 3.91925 92.5321 5.4398C94.4513 6.19224 96.3547 6.97603 98.2897 7.88522C100.24 8.82577 102.081 9.87605 103.859 11.0047C107.367 13.3717 110.717 15.8642 113.785 18.7642C115.311 20.2377 116.79 21.7583 118.19 23.3572C119.543 25.0189 120.848 26.6805 121.965 28.5302L121.336 29.267C115.688 23.5767 108.877 19.3599 101.861 16.021C98.3369 14.328 94.7187 13.0269 90.9904 11.9923C87.2778 10.9577 83.4866 10.0798 79.6954 9.5155C72.0814 8.52793 64.3417 8.63766 56.7749 9.89172C49.2082 11.1458 41.7831 13.5599 34.9872 17.3847C28.2385 21.1783 22.355 26.8059 17.7457 33.4367C13.1522 40.0833 9.6756 47.7644 8.08674 55.9315C6.45069 64.0516 7.1586 72.7203 10.0217 80.4328C12.8376 88.1296 17.8873 95.0583 24.7304 98.8361L24.3686 99.7767V99.7453Z" fill="#54A4DB"/>
<path d="M130.884 50.6798C135.81 50.6798 139.804 46.7004 139.804 41.7916C139.804 36.8828 135.81 32.9035 130.884 32.9035C125.958 32.9035 121.964 36.8828 121.964 41.7916C121.964 46.7004 125.958 50.6798 130.884 50.6798Z" fill="#449DD7"/>
<path d="M130.884 47.1841C133.873 47.1841 136.295 44.7698 136.295 41.7916C136.295 38.8135 133.873 36.3992 130.884 36.3992C127.895 36.3992 125.472 38.8135 125.472 41.7916C125.472 44.7698 127.895 47.1841 130.884 47.1841Z" fill="white"/>
</g>
<defs>
<clipPath id="clip0_8_3">
<rect width="273" height="100.764" fill="white"/>
</clipPath>
</defs>
</svg>
