<svg width="160" height="192" viewBox="0 0 160 192" fill="none" xmlns="http://www.w3.org/2000/svg">
<g clip-path="url(#clip0_14_194)">
<path d="M156.593 3.39011H3.39499V188.61H156.593V3.39011Z" fill="#3FA535"/>
<mask id="mask0_14_194" style="mask-type:luminance" maskUnits="userSpaceOnUse" x="0" y="0" width="160" height="192">
<path d="M159.988 0H0V192H159.988V0Z" fill="white"/>
</mask>
<g mask="url(#mask0_14_194)">
<path d="M156.593 3.39011H3.39499V188.61H156.593V3.39011Z" stroke="white" stroke-width="5.76"/>
<path d="M34.162 48.615C38.6886 48.615 42.3665 44.9424 42.3665 40.4223C42.3665 35.9022 38.6886 32.2295 34.162 32.2295C29.6353 32.2295 25.9574 35.9022 25.9574 40.4223C25.9574 44.9424 29.6353 48.615 34.162 48.615Z" fill="white"/>
<path d="M34.162 102.386C38.6886 102.386 42.3665 98.7133 42.3665 94.1931C42.3665 89.673 38.6886 86.0004 34.162 86.0004C29.6353 86.0004 25.9574 89.673 25.9574 94.1931C25.9574 98.7133 29.6353 102.386 34.162 102.386Z" fill="white"/>
<path d="M34.162 156.157C38.6886 156.157 42.3665 152.484 42.3665 147.964C42.3665 143.444 38.6886 139.771 34.162 139.771C29.6353 139.771 25.9574 143.444 25.9574 147.964C25.9574 152.484 29.6353 156.157 34.162 156.157Z" fill="white"/>
<path d="M79.1807 48.615C83.7074 48.615 87.3853 44.9424 87.3853 40.4223C87.3853 35.9022 83.7074 32.2295 79.1807 32.2295C74.6541 32.2295 70.9762 35.9022 70.9762 40.4223C70.9762 44.9424 74.6541 48.615 79.1807 48.615Z" fill="white"/>
<path d="M79.1807 102.386C83.7074 102.386 87.3853 98.7133 87.3853 94.1931C87.3853 89.673 83.7074 86.0004 79.1807 86.0004C74.6541 86.0004 70.9762 89.673 70.9762 94.1931C70.9762 98.7133 74.6541 102.386 79.1807 102.386Z" fill="white"/>
<path d="M79.1807 156.157C83.7074 156.157 87.3853 152.484 87.3853 147.964C87.3853 143.444 83.7074 139.771 79.1807 139.771C74.6541 139.771 70.9762 143.444 70.9762 147.964C70.9762 152.484 74.6541 156.157 79.1807 156.157Z" fill="white"/>
<path d="M124.2 48.615C128.726 48.615 132.404 44.9424 132.404 40.4223C132.404 35.9022 128.726 32.2295 124.2 32.2295C119.673 32.2295 115.995 35.9022 115.995 40.4223C115.995 44.9424 119.673 48.615 124.2 48.615Z" fill="white"/>
<path d="M124.2 102.386C128.726 102.386 132.404 98.7133 132.404 94.1931C132.404 89.673 128.726 86.0004 124.2 86.0004C119.673 86.0004 115.995 89.673 115.995 94.1931C115.995 98.7133 119.673 102.386 124.2 102.386Z" fill="white"/>
<path d="M124.2 156.157C128.726 156.157 132.404 152.484 132.404 147.964C132.404 143.444 128.726 139.771 124.2 139.771C119.673 139.771 115.995 143.444 115.995 147.964C115.995 152.484 119.673 156.157 124.2 156.157Z" fill="white"/>
</g>
</g>
<defs>
<clipPath id="clip0_14_194">
<rect width="160" height="192" fill="white"/>
</clipPath>
</defs>
</svg>
